<?xml version="1.0" standalone="no"?>
<!DOCTYPE svg PUBLIC "-//W3C//DTD SVG 20010904//EN"
 "http://www.w3.org/TR/2001/REC-SVG-20010904/DTD/svg10.dtd">
<svg version="1.0" xmlns="http://www.w3.org/2000/svg"
 width="356.000000pt" height="356.000000pt" viewBox="0 0 356.000000 356.000000"
 preserveAspectRatio="xMidYMid meet">
<metadata>
Created by potrace 1.14, written by Peter Selinger 2001-2017
</metadata>
<g transform="translate(0.000000,356.000000) scale(0.100000,-0.100000)"
fill="#000000" stroke="none">
<path d="M949 2630 c-72 -21 -159 -79 -236 -156 -67 -67 -89 -98 -126 -175
-51 -107 -73 -188 -83 -305 -8 -92 4 -127 39 -122 17 2 24 13 31 43 37 176 83
270 180 372 77 82 157 136 269 183 113 47 148 104 91 149 -28 22 -111 28 -165
11z"/>
<path d="M1255 2454 c-130 -31 -237 -76 -315 -132 -70 -51 -140 -126 -140
-149 0 -39 27 -37 93 5 79 52 178 97 245 111 125 26 291 7 428 -50 90 -37 141
-40 166 -9 23 28 23 47 -2 87 -51 84 -175 134 -345 139 -60 1 -119 1 -130 -2z"/>
<path d="M400 2413 c-58 -21 -121 -130 -146 -254 -40 -197 25 -425 170 -599
57 -69 95 -96 120 -87 24 10 19 35 -18 91 -75 114 -110 207 -121 323 -9 87 9
217 41 302 51 135 56 152 50 176 -12 46 -49 65 -96 48z"/>
<path d="M1065 2118 c-102 -36 -149 -129 -109 -214 22 -46 61 -67 189 -104
152 -44 182 -76 131 -137 -51 -60 -170 -71 -260 -24 -54 29 -56 29 -78 11
l-23 -18 20 -22 c81 -89 281 -105 384 -29 106 76 96 218 -19 267 -19 8 -79 27
-134 42 -115 33 -145 55 -130 97 12 37 83 73 144 73 30 0 64 -9 96 -25 48 -24
49 -24 68 -5 25 24 13 40 -57 75 -41 20 -65 25 -121 24 -39 0 -84 -5 -101 -11z"/>
<path d="M1430 2115 c0 -2 50 -82 110 -176 l110 -172 0 -114 0 -113 45 0 45 0
0 115 0 114 110 171 c61 94 110 173 110 175 0 3 -24 5 -52 5 l-53 0 -79 -126
c-70 -110 -81 -124 -92 -109 -7 9 -43 66 -81 126 l-68 108 -52 1 c-29 0 -53
-2 -53 -5z"/>
<path d="M2010 1829 l0 -291 178 4 179 3 37 29 c45 34 66 79 66 138 0 46 -26
99 -59 119 -18 12 -18 14 7 52 20 29 26 51 25 89 -1 56 -20 90 -73 126 -31 21
-43 22 -196 22 l-164 0 0 -291z m290 226 c59 -31 69 -107 21 -156 -28 -28 -33
-29 -125 -29 l-96 0 0 100 0 100 85 0 c57 0 96 -5 115 -15z m31 -258 c48 -32
63 -96 33 -146 -27 -45 -52 -54 -161 -59 l-103 -5 0 118 0 117 103 -4 c75 -3
109 -8 128 -21z"/>
<path d="M2512 1833 l3 -288 213 -3 213 -2 -3 27 -3 28 -162 3 -163 2 0 100 0
100 163 2 162 3 3 28 3 27 -165 0 -166 0 0 105 0 105 165 0 165 0 0 25 0 25
-215 0 -215 0 2 -287z"/>
<path d="M2992 1833 l3 -288 48 -3 47 -3 0 120 0 121 48 0 c71 0 104 -26 178
-140 l64 -100 51 0 c38 0 50 3 46 13 -3 7 -36 60 -73 118 -82 124 -80 119 -60
119 9 0 34 16 56 36 70 63 77 162 17 231 -50 57 -76 63 -262 63 l-165 0 2
-287z m308 219 c22 -10 42 -32 54 -56 17 -36 18 -43 5 -80 -23 -66 -63 -86
-175 -86 l-94 0 0 120 0 120 88 0 c63 0 97 -5 122 -18z"/>
<path d="M84 1789 c-15 -16 -19 -36 -19 -88 0 -102 51 -199 164 -312 98 -98
198 -154 335 -189 95 -24 247 -28 265 -6 16 20 3 45 -28 52 -184 40 -259 72
-352 148 -93 77 -163 176 -220 311 -17 42 -41 82 -52 90 -30 21 -71 19 -93 -6z"/>
<path d="M955 1398 c-9 -24 -1 -128 10 -131 13 -3 19 123 6 136 -7 7 -12 5
-16 -5z"/>
<path d="M1000 1335 c0 -43 4 -75 10 -75 6 0 10 24 10 52 l0 53 35 -53 c20
-28 40 -52 45 -52 6 0 10 33 10 75 0 85 -17 103 -22 23 l-3 -53 -34 53 c-18
28 -37 52 -42 52 -5 0 -9 -34 -9 -75z"/>
<path d="M1130 1335 c0 -43 4 -75 10 -75 6 0 10 14 10 30 0 17 4 30 8 30 5 0
21 -13 37 -30 16 -16 36 -30 44 -30 10 0 2 13 -23 36 l-38 36 38 39 c24 25 33
39 23 39 -8 0 -28 -13 -44 -30 -16 -16 -32 -30 -37 -30 -4 0 -8 14 -8 30 0 17
-4 30 -10 30 -6 0 -10 -32 -10 -75z"/>
<path d="M1131 1194 c-121 -81 -228 -114 -376 -114 -114 0 -195 17 -297 60
-102 44 -155 38 -173 -19 -13 -43 37 -106 117 -147 151 -77 376 -74 554 6 128
58 274 177 274 225 0 36 -34 33 -99 -11z"/>
</g>
</svg>
